# xmcd
#
# Track frame offsets:
#	150
#	10432
#	26037
#	37492
#	50750
#	60355
#	70327
#	81832
#	91970
#	104567
#	117420
#	128137
#	140107
#	151340
#	163955
#	176202
#	188865
#	201215
#	210915
#	222530
#	235912
#	248462
#	257610
#	269807
#	281905
#	293422
#	304782
#	316522
#
# Disc length: 4403
#
# Revision: 1
# Processed by: cddbd v1.5.1PL0 Copyright (c) Steve Scherf et al.
# Submitted via: audiograbber 1.83.01
# Normalized: r0:DSETVAR1
#
DISCID=b011311c
DTITLE=Various Artist - The Orginal Sound Of Detroit Volume 1
DYEAR=1900
DGENRE=Soul
TTITLE0=Marvin Gaye - The Teen Beat Song
TTITLE1=David Ruffin - Mr Bus Driver Hurry
TTITLE2=Temptations - I Want A Love I Can See
TTITLE3=Herman Griffin - Uptight
TTITLE4=Lamont Dozier - Fortune Teller Tell Me
TTITLE5=Equadors - Someone To Call My Own
TTITLE6=Four Hollidays - I'll Walk Right Out The Door
TTITLE7=Marvin Gaye - Wherever I Lay My Hat
TTITLE8=Jimmy Hart - Tea House In China
TTITLE9=Sue Perrin - Candy Store Man
TTITLE10=Jimmy McFarland - Lonely Lover
TTITLE11=Rare Earth - Stop Her On Sight SOS
TTITLE12=Eddie Holland - Jamie (2nd Version)
TTITLE13=Ty Hunter - Free
TTITLE14=Satintones - My Beloved  (strings version)
TTITLE15=Temptations - Paradise
TTITLE16=Two Friends - Just Too Much To Hope For
TTITLE17=Gino Washinton - Puppet On A String (2nd Version)
TTITLE18=Patrice Holloway - For The Love Of Mike
TTITLE19=Lamont Anthony - Just To Be Loved
TTITLE20=Mickey Wood - The Call Me Cupid
TTITLE21=Primettes - Pretty Baby
TTITLE22=Don McKenzie - Whose Heart Are You Gonna Break Now
TTITLE23=Arthur Adams - Let Me Love You Tonight
TTITLE24=Eugene Remus - Gotta Have Your Lovin'
TTITLE25=Clarence Paul - I Need Your Lovin'
TTITLE26=Dee Edwards - Too Careless Eith My Love
TTITLE27=Temptations - My Smile Is A Frown
EXTD=
EXTT0=
EXTT1=
EXTT2=
EXTT3=
EXTT4=
EXTT5=
EXTT6=
EXTT7=
EXTT8=
EXTT9=
EXTT10=
EXTT11=
EXTT12=
EXTT13=
EXTT14=
EXTT15=
EXTT16=
EXTT17=
EXTT18=
EXTT19=
EXTT20=
EXTT21=
EXTT22=
EXTT23=
EXTT24=
EXTT25=
EXTT26=
EXTT27=
PLAYORDER=
